<svg xmlns="http://www.w3.org/2000/svg" xmlns:xlink="http://www.w3.org/1999/xlink" viewBox="0 0 2808 792"><defs><style>.a{fill:url(#a);}.b{fill:url(#b);}.c{fill:url(#c);}.d{fill:url(#d);}.e{fill:url(#e);}.f{fill:url(#f);}.g{fill:url(#g);}.h{fill:url(#h);}.i{fill:#ff5252;}</style><radialGradient id="a" cx="396" cy="306.02" r="761.54" gradientUnits="userSpaceOnUse"><stop offset="0" stop-color="#fff"/><stop offset="0.28" stop-color="#fcfcfc"/><stop offset="0.45" stop-color="#f4f4f4"/><stop offset="0.59" stop-color="#e6e6e6"/><stop offset="0.72" stop-color="#d1d1d1"/><stop offset="0.83" stop-color="#b7b7b7"/><stop offset="0.94" stop-color="#979797"/><stop offset="1" stop-color="gray"/></radialGradient><radialGradient id="b" cx="1733.98" cy="540" r="416.74" gradientTransform="translate(-216 -684) scale(1 2)" xlink:href="#a"/><radialGradient id="c" cx="2412" cy="396" r="636.13" xlink:href="#a"/><radialGradient id="d" cx="612" cy="257.99" r="347.41" gradientTransform="translate(-216 -15) scale(1 0.5)" gradientUnits="userSpaceOnUse"><stop offset="0" stop-color="#fff"/><stop offset="0.24" stop-color="#fcfcfc"/><stop offset="0.39" stop-color="#f4f4f4"/><stop offset="0.51" stop-color="#e6e6e6"/><stop offset="0.62" stop-color="#d1d1d1"/><stop offset="0.71" stop-color="#b7b7b7"/><stop offset="0.81" stop-color="#979797"/><stop offset="0.89" stop-color="#707070"/><stop offset="0.97" stop-color="#454545"/><stop offset="1" stop-color="#333"/></radialGradient><radialGradient id="e" cx="1389.98" cy="538" r="224.7" gradientTransform="translate(-216 -682) scale(1 2)" xlink:href="#a"/><radialGradient id="f" cx="1065.98" cy="1870" r="224.7" gradientTransform="translate(-1330 1692) rotate(-90) scale(1 2)" xlink:href="#a"/><radialGradient id="g" cx="2955" cy="435" r="195.27" gradientTransform="translate(-216 -579) scale(1 2)" xlink:href="#a"/><radialGradient id="h" cx="3207" cy="39" r="195.27" gradientTransform="translate(2229 3276) rotate(-90) scale(1 2)" xlink:href="#a"/></defs><title>logo</title><polygon class="a" points="144 0 0 144 0 792 144 792 144 144 648 144 648 792 792 792 792 144 648 0 144 0"/><polygon class="b" points="1800 144 1800 0 1152 0 1008 144 1008 648 1152 792 1800 792 1800 648 1152 648 1152 144 1800 144"/><polygon class="c" points="2160 0 2016 144 2664 144 2664 648 2016 648 2160 792 2664 792 2808 648 2808 144 2664 0 2160 0"/><rect class="d" x="144" width="504" height="144"/><polygon class="e" points="1152 0 1008 144 1008 648 1152 792 1152 0"/><polygon class="f" points="2016 648 2160 792 2664 792 2808 648 2016 648"/><polygon class="g" points="2664 0 2664 648 2808 648 2808 144 2664 0"/><polygon class="h" points="2016 144 2664 144 2664 0 2160 0 2016 144"/><rect class="i" x="1368" y="324" width="432" height="144"/><rect class="i" x="2016" y="216" width="144" height="360"/></svg>