<?xml version="1.0" encoding="utf-8"?>
<!-- Generator: Adobe Illustrator 16.0.4, SVG Export Plug-In . SVG Version: 6.00 Build 0)  -->
<!DOCTYPE svg PUBLIC "-//W3C//DTD SVG 1.1//EN" "http://www.w3.org/Graphics/SVG/1.1/DTD/svg11.dtd">
<svg version="1.1" xmlns="http://www.w3.org/2000/svg" xmlns:xlink="http://www.w3.org/1999/xlink" x="0px" y="0px" width="3240px"
	 height="1440px" viewBox="0 0 3240 1440" enable-background="new 0 0 3240 1440" xml:space="preserve">
<g id="neo">
	<g id="white">
		<radialGradient id="SVGID_1_" cx="612" cy="450.0176" r="761.5423" gradientUnits="userSpaceOnUse">
			<stop  offset="0" style="stop-color:#FFFFFF"/>
			<stop  offset="0.283" style="stop-color:#FCFCFC"/>
			<stop  offset="0.4532" style="stop-color:#F4F4F4"/>
			<stop  offset="0.5936" style="stop-color:#E6E6E6"/>
			<stop  offset="0.7177" style="stop-color:#D1D1D1"/>
			<stop  offset="0.8311" style="stop-color:#B7B7B7"/>
			<stop  offset="0.9352" style="stop-color:#979797"/>
			<stop  offset="1" style="stop-color:#808080"/>
		</radialGradient>
		<polygon fill="url(#SVGID_1_)" points="360,144 216,288 216,936 360,936 360,288 864,288 864,936 1008,936 1008,288 864,144 		"/>
		
			<radialGradient id="SVGID_2_" cx="1733.9766" cy="540" r="416.7365" gradientTransform="matrix(1 0 0 2 0 -540)" gradientUnits="userSpaceOnUse">
			<stop  offset="0" style="stop-color:#FFFFFF"/>
			<stop  offset="0.283" style="stop-color:#FCFCFC"/>
			<stop  offset="0.4532" style="stop-color:#F4F4F4"/>
			<stop  offset="0.5936" style="stop-color:#E6E6E6"/>
			<stop  offset="0.7177" style="stop-color:#D1D1D1"/>
			<stop  offset="0.8311" style="stop-color:#B7B7B7"/>
			<stop  offset="0.9352" style="stop-color:#979797"/>
			<stop  offset="1" style="stop-color:#808080"/>
		</radialGradient>
		<polygon fill="url(#SVGID_2_)" points="2016,288 2016,144 1368,144 1224,288 1224,792 1368,936 2016,936 2016,792 1368,792 
			1368,288 		"/>
		<radialGradient id="SVGID_3_" cx="2628" cy="540" r="636.1304" gradientUnits="userSpaceOnUse">
			<stop  offset="0" style="stop-color:#FFFFFF"/>
			<stop  offset="0.283" style="stop-color:#FCFCFC"/>
			<stop  offset="0.4532" style="stop-color:#F4F4F4"/>
			<stop  offset="0.5936" style="stop-color:#E6E6E6"/>
			<stop  offset="0.7177" style="stop-color:#D1D1D1"/>
			<stop  offset="0.8311" style="stop-color:#B7B7B7"/>
			<stop  offset="0.9352" style="stop-color:#979797"/>
			<stop  offset="1" style="stop-color:#808080"/>
		</radialGradient>
		<polygon fill="url(#SVGID_3_)" points="2376,144 2232,288 2880,288 2880,792 2232,792 2376,936 2880,936 3024,792 3024,288 
			2880,144 		"/>
		
			<radialGradient id="SVGID_4_" cx="612" cy="257.9917" r="347.4095" gradientTransform="matrix(1 0 0 0.5 0 128.9958)" gradientUnits="userSpaceOnUse">
			<stop  offset="0" style="stop-color:#FFFFFF"/>
			<stop  offset="0.2433" style="stop-color:#FCFCFC"/>
			<stop  offset="0.3896" style="stop-color:#F4F4F4"/>
			<stop  offset="0.5102" style="stop-color:#E6E6E6"/>
			<stop  offset="0.617" style="stop-color:#D1D1D1"/>
			<stop  offset="0.7145" style="stop-color:#B7B7B7"/>
			<stop  offset="0.8054" style="stop-color:#979797"/>
			<stop  offset="0.8911" style="stop-color:#707070"/>
			<stop  offset="0.9706" style="stop-color:#454545"/>
			<stop  offset="1" style="stop-color:#333333"/>
		</radialGradient>
		<rect x="360" y="144" fill="url(#SVGID_4_)" width="504" height="144"/>
		
			<radialGradient id="SVGID_5_" cx="1389.9844" cy="538" r="224.6974" gradientTransform="matrix(1 0 0 2 0 -538)" gradientUnits="userSpaceOnUse">
			<stop  offset="0" style="stop-color:#FFFFFF"/>
			<stop  offset="0.283" style="stop-color:#FCFCFC"/>
			<stop  offset="0.4532" style="stop-color:#F4F4F4"/>
			<stop  offset="0.5936" style="stop-color:#E6E6E6"/>
			<stop  offset="0.7177" style="stop-color:#D1D1D1"/>
			<stop  offset="0.8311" style="stop-color:#B7B7B7"/>
			<stop  offset="0.9352" style="stop-color:#979797"/>
			<stop  offset="1" style="stop-color:#808080"/>
		</radialGradient>
		<polygon fill="url(#SVGID_5_)" points="1368,144 1224,288 1224,792 1368,936 		"/>
		
			<radialGradient id="SVGID_6_" cx="1065.9844" cy="1869.999" r="224.6974" gradientTransform="matrix(0 -1 2 0 -1113.9985 1836)" gradientUnits="userSpaceOnUse">
			<stop  offset="0" style="stop-color:#FFFFFF"/>
			<stop  offset="0.283" style="stop-color:#FCFCFC"/>
			<stop  offset="0.4532" style="stop-color:#F4F4F4"/>
			<stop  offset="0.5936" style="stop-color:#E6E6E6"/>
			<stop  offset="0.7177" style="stop-color:#D1D1D1"/>
			<stop  offset="0.8311" style="stop-color:#B7B7B7"/>
			<stop  offset="0.9352" style="stop-color:#979797"/>
			<stop  offset="1" style="stop-color:#808080"/>
		</radialGradient>
		<polygon fill="url(#SVGID_6_)" points="2232,792 2376,936 2880,936 3024,792 		"/>
		
			<radialGradient id="SVGID_7_" cx="2955" cy="434.9966" r="195.2655" gradientTransform="matrix(1 0 0 2 0 -434.9966)" gradientUnits="userSpaceOnUse">
			<stop  offset="0" style="stop-color:#FFFFFF"/>
			<stop  offset="0.283" style="stop-color:#FCFCFC"/>
			<stop  offset="0.4532" style="stop-color:#F4F4F4"/>
			<stop  offset="0.5936" style="stop-color:#E6E6E6"/>
			<stop  offset="0.7177" style="stop-color:#D1D1D1"/>
			<stop  offset="0.8311" style="stop-color:#B7B7B7"/>
			<stop  offset="0.9352" style="stop-color:#979797"/>
			<stop  offset="1" style="stop-color:#808080"/>
		</radialGradient>
		<polygon fill="url(#SVGID_7_)" points="2880,144 2880,792 3024,792 3024,288 		"/>
		
			<radialGradient id="SVGID_8_" cx="3207" cy="38.9961" r="195.2655" gradientTransform="matrix(0 -1 2 0 2445.0044 3420)" gradientUnits="userSpaceOnUse">
			<stop  offset="0" style="stop-color:#FFFFFF"/>
			<stop  offset="0.283" style="stop-color:#FCFCFC"/>
			<stop  offset="0.4532" style="stop-color:#F4F4F4"/>
			<stop  offset="0.5936" style="stop-color:#E6E6E6"/>
			<stop  offset="0.7177" style="stop-color:#D1D1D1"/>
			<stop  offset="0.8311" style="stop-color:#B7B7B7"/>
			<stop  offset="0.9352" style="stop-color:#979797"/>
			<stop  offset="1" style="stop-color:#808080"/>
		</radialGradient>
		<polygon fill="url(#SVGID_8_)" points="2232,288 2880,288 2880,144 2376,144 		"/>
	</g>
	<g id="red">
		<rect x="1584" y="468" fill="#EF5350" width="432" height="144"/>
		<rect x="2232" y="360" fill="#EF5350" width="144" height="360"/>
	</g>
</g>
<g id="marketing">
	<g>
		<path fill="#E0E0E0" d="M581.792,1364.147h-65.674v-237.793h-1.953l-95.703,234.375h-46.387l-95.703-234.375h-1.953v237.793
			h-65.674v-352.295h85.449l100.098,249.756h1.953l100.098-249.756h85.449V1364.147z"/>
		<path fill="#E0E0E0" d="M844.243,1278.698H720.464l-26.855,85.449h-75.684l122.314-352.295h86.67l122.559,352.295h-78.369
			L844.243,1278.698z M736.333,1223.522h92.041l-45.166-144.287h-1.709L736.333,1223.522z"/>
		<path fill="#E0E0E0" d="M1059.087,1364.147h-73.73v-352.295h145.508c81.055,0,127.441,42.725,127.441,112.305
			c0,45.166-23.438,84.229-63.965,100.098l74.219,139.893h-83.496l-65.674-128.906h-60.303V1364.147z M1059.087,1181.774h64.697
			c37.109,0,58.838-21.24,58.838-56.152c0-34.18-22.949-56.152-59.57-56.152h-63.965V1181.774z"/>
		<path fill="#E0E0E0" d="M1306.646,1364.147v-352.295h73.73v160.645h2.197l132.324-160.645h82.031l-130.371,156.25l139.404,196.045
			h-88.135l-104.492-147.217l-32.959,39.551v107.666H1306.646z"/>
		<path fill="#E0E0E0" d="M1870.366,1364.147h-233.398v-352.295h233.398v60.791h-159.668v84.961h150.635v56.641h-150.635v88.867
			h159.668V1364.147z"/>
		<path fill="#E0E0E0" d="M2009.038,1364.147v-291.504h-103.027v-60.791h280.029v60.791h-103.271v291.504H2009.038z"/>
		<path fill="#E0E0E0" d="M2226.812,1364.147v-352.295h73.73v352.295H2226.812z"/>
		<path fill="#E0E0E0" d="M2359.136,1364.147v-352.295h61.523l164.551,229.492h1.953v-229.492h70.557v352.295h-61.035
			l-164.795-230.713h-2.197v230.713H2359.136z"/>
		<path fill="#E0E0E0" d="M2875.005,1370.251c-105.225,0-169.678-68.848-169.678-183.35c0-112.793,64.453-181.152,167.969-181.152
			c82.275,0,144.287,48.584,154.785,119.873h-73.975c-10.742-36.865-40.771-58.838-80.566-58.838
			c-58.105,0-93.018,44.189-93.018,119.141c0,76.416,37.109,123.047,95.703,123.047c48.096,0,81.543-29.541,83.008-73.242
			l0.244-5.615h-76.66v-53.711h148.438v39.795C3031.255,1312.146,2973.149,1370.251,2875.005,1370.251z"/>
	</g>
</g>
</svg>
