<?xml version="1.0" encoding="utf-8"?>
<!-- Generator: Adobe Illustrator 16.0.4, SVG Export Plug-In . SVG Version: 6.00 Build 0)  -->
<!DOCTYPE svg PUBLIC "-//W3C//DTD SVG 1.1//EN" "http://www.w3.org/Graphics/SVG/1.1/DTD/svg11.dtd">
<svg version="1.1" id="slogen_x5F_text" xmlns="http://www.w3.org/2000/svg" xmlns:xlink="http://www.w3.org/1999/xlink" x="0px"
	 y="0px" width="6480px" height="1440px" viewBox="0 0 6480 1440" enable-background="new 0 0 6480 1440" xml:space="preserve">
<g>
	<path fill="#212121" d="M376.108,558.062V205.767h129.639c60.547,0,101.807,34.912,101.807,86.914
		c0,39.062-27.1,72.51-64.453,79.346v1.709c48.584,5.859,82.52,38.818,82.52,87.646c0,60.059-44.678,96.68-119.141,96.68H376.108z
		 M409.312,362.261h79.59c53.467,0,84.961-24.414,84.961-65.918c0-38.33-28.32-61.035-75.195-61.035h-89.355V362.261z
		 M502.085,528.521c57.373,0,89.355-25.146,89.355-68.848c0-43.945-33.203-68.604-93.994-68.604h-88.135v137.451H502.085z"/>
	<path fill="#212121" d="M879.282,558.062h-30.518v-49.316h-0.732c-14.404,32.227-45.898,52.246-87.402,52.246
		c-57.373,0-92.773-37.109-92.773-96.436V295.122h32.227v164.062c0,46.875,25.146,72.754,69.58,72.754
		c45.898,0,77.148-32.471,77.148-82.275V295.122h32.471V558.062z"/>
	<path fill="#212121" d="M923.96,426.47c0-80.322,46.387-134.277,111.816-134.277c42.48,0,76.172,22.949,90.332,56.885h0.732
		V190.386h32.471v367.676h-30.762v-55.908h-0.732c-15.137,35.645-48.584,58.838-91.309,58.838
		C970.591,560.991,923.96,506.792,923.96,426.47z M956.919,426.47c0,63.477,34.424,105.469,84.717,105.469
		c50.537,0,85.449-42.725,85.449-105.469c0-62.256-34.912-105.469-85.449-105.469C991.343,321.001,956.919,363.237,956.919,426.47z"
		/>
	<path fill="#212121" d="M1219.37,582.231h33.691c6.348,23.438,34.912,39.062,74.219,39.062c48.828,0,81.299-25.146,81.299-65.674
		v-53.467h-0.732c-14.648,33.936-48.34,57.129-90.332,57.129c-66.162,0-111.084-53.711-111.084-133.301
		c0-80.322,44.922-133.789,111.816-133.789c41.992,0,75.928,22.949,91.309,57.373h0.488v-54.443h30.762v258.057
		c0,60.303-45.166,96.436-115.479,96.436C1267.222,649.614,1225.962,622.515,1219.37,582.231z M1408.579,425.981
		c0-62.256-34.668-104.98-85.449-104.98c-50.293,0-83.74,41.992-83.74,104.98c0,62.744,33.447,104.248,83.74,104.248
		C1373.911,530.229,1408.579,487.749,1408.579,425.981z"/>
	<path fill="#212121" d="M1713.022,483.599c-7.812,44.922-51.025,77.393-108.154,77.393c-72.754,0-119.141-51.025-119.141-133.789
		c0-81.543,46.387-135.01,117.188-135.01c69.092,0,113.525,50.049,113.525,128.174v14.16h-197.266v1.709
		c0,59.57,34.18,96.191,86.426,96.191c39.551,0,67.627-20.02,75.439-48.828H1713.022z M1519.175,408.159h163.574
		c-0.488-52.246-32.715-87.402-80.322-87.402C1555.308,320.757,1522.104,355.913,1519.175,408.159z"/>
	<path fill="#212121" d="M1807.749,232.134v62.988h52.002v27.1h-52.002v169.922c0,27.344,10.742,39.062,35.156,39.062
		c3.418,0,16.113-0.732,18.066-0.977v27.588c-3.418,0.977-17.578,1.709-24.414,1.709c-43.457,0-61.035-18.799-61.035-66.162V322.222
		h-37.598v-27.1h37.598v-62.988H1807.749z"/>
	<path fill="#212121" d="M1904.917,433.55v-30.273h160.156v30.273H1904.917z"/>
	<path fill="#212121" d="M2430.552,382.036c0,111.572-61.768,181.641-160.156,181.641c-98.145,0-159.912-70.068-159.912-181.641
		s61.768-181.885,159.912-181.885S2430.552,270.464,2430.552,382.036z M2144.663,382.036c0,92.285,48.584,150.635,125.732,150.635
		s125.977-58.35,125.977-150.635c0-92.529-48.828-150.879-125.977-150.879S2144.663,289.507,2144.663,382.036z"/>
	<path fill="#212121" d="M2480.601,295.122h30.273v46.631h0.977c9.033-31.25,33.936-49.561,66.65-49.561
		c8.545,0,16.357,1.465,20.508,2.686v31.982c-4.395-1.953-13.672-3.662-24.902-3.662c-37.354,0-61.279,29.297-61.279,71.777v163.086
		h-32.227V295.122z"/>
	<path fill="#212121" d="M2631.968,221.392c0-12.207,10.01-21.973,21.973-21.973s21.729,9.766,21.729,21.973
		c0,11.719-9.766,21.729-21.729,21.729S2631.968,233.11,2631.968,221.392z M2637.827,295.122h32.227v262.939h-32.227V295.122z"/>
	<path fill="#212121" d="M2944.712,483.599c-7.812,44.922-51.025,77.393-108.154,77.393c-72.754,0-119.141-51.025-119.141-133.789
		c0-81.543,46.387-135.01,117.188-135.01c69.092,0,113.525,50.049,113.525,128.174v14.16h-197.266v1.709
		c0,59.57,34.18,96.191,86.426,96.191c39.551,0,67.627-20.02,75.439-48.828H2944.712z M2750.864,408.159h163.574
		c-0.488-52.246-32.715-87.402-80.322-87.402C2786.997,320.757,2753.794,355.913,2750.864,408.159z"/>
	<path fill="#212121" d="M2993.052,295.122h30.273v49.072h0.977c14.648-32.715,44.189-52.002,86.67-52.002
		c57.861,0,93.262,37.109,93.262,96.68v169.189h-32.227V393.999c0-46.387-25.391-72.998-70.068-72.998
		c-46.875,0-76.66,33.447-76.66,82.52v154.541h-32.227V295.122z"/>
	<path fill="#212121" d="M3307.261,232.134v62.988h52.002v27.1h-52.002v169.922c0,27.344,10.742,39.062,35.156,39.062
		c3.418,0,16.113-0.732,18.066-0.977v27.588c-3.418,0.977-17.578,1.709-24.414,1.709c-43.457,0-61.035-18.799-61.035-66.162V322.222
		h-37.598v-27.1h37.598v-62.988H3307.261z"/>
	<path fill="#212121" d="M3612.192,483.599c-7.812,44.922-51.025,77.393-108.154,77.393c-72.754,0-119.141-51.025-119.141-133.789
		c0-81.543,46.387-135.01,117.188-135.01c69.092,0,113.525,50.049,113.525,128.174v14.16h-197.266v1.709
		c0,59.57,34.18,96.191,86.426,96.191c39.551,0,67.627-20.02,75.439-48.828H3612.192z M3418.345,408.159h163.574
		c-0.488-52.246-32.715-87.402-80.322-87.402C3454.478,320.757,3421.274,355.913,3418.345,408.159z"/>
	<path fill="#212121" d="M3647.349,426.47c0-80.322,46.387-134.277,111.816-134.277c42.48,0,76.172,22.949,90.332,56.885h0.732
		V190.386h32.471v367.676h-30.762v-55.908h-0.732c-15.137,35.645-48.584,58.838-91.309,58.838
		C3693.979,560.991,3647.349,506.792,3647.349,426.47z M3680.308,426.47c0,63.477,34.424,105.469,84.717,105.469
		c50.537,0,85.449-42.725,85.449-105.469c0-62.256-34.912-105.469-85.449-105.469
		C3714.731,321.001,3680.308,363.237,3680.308,426.47z"/>
	<path fill="#212121" d="M4397.104,558.062h-31.25V268.999h-1.465l-122.559,287.354h-29.053l-122.314-287.354h-1.465v289.062h-31.25
		V205.767h38.33l130.615,308.35h1.465l130.371-308.35h38.574V558.062z"/>
	<path fill="#212121" d="M4448.618,484.819c0-44.922,33.691-71.045,96.68-75.439l80.811-5.371v-22.461
		c0-38.33-24.17-60.547-66.65-60.547c-36.621,0-62.256,18.799-68.115,50.049h-31.006c2.686-46.143,44.189-78.857,99.365-78.857
		c60.303,0,98.633,33.691,98.633,86.67v179.199h-30.762v-50.293h-0.732c-14.16,31.982-49.805,53.223-90.088,53.223
		C4484.263,560.991,4448.618,530.229,4448.618,484.819z M4626.108,459.185v-29.053l-76.904,5.371
		c-44.189,2.93-67.627,20.02-67.627,49.561c0,28.32,24.902,47.607,61.523,47.607C4590.22,532.671,4626.108,500.688,4626.108,459.185
		z"/>
	<path fill="#212121" d="M4714.976,295.122h30.273v46.631h0.977c9.033-31.25,33.936-49.561,66.65-49.561
		c8.545,0,16.357,1.465,20.508,2.686v31.982c-4.395-1.953-13.672-3.662-24.902-3.662c-37.354,0-61.279,29.297-61.279,71.777v163.086
		h-32.227V295.122z"/>
	<path fill="#212121" d="M5035.776,295.122h40.039l-118.652,113.525l121.094,149.414h-38.086l-105.957-129.639l-29.785,27.1v102.539
		h-32.227V190.386h32.227v229.736h0.244L5035.776,295.122z"/>
	<path fill="#212121" d="M5313.608,483.599c-7.812,44.922-51.025,77.393-108.154,77.393c-72.754,0-119.141-51.025-119.141-133.789
		c0-81.543,46.387-135.01,117.188-135.01c69.092,0,113.525,50.049,113.525,128.174v14.16h-197.266v1.709
		c0,59.57,34.18,96.191,86.426,96.191c39.551,0,67.627-20.02,75.439-48.828H5313.608z M5119.761,408.159h163.574
		c-0.488-52.246-32.715-87.402-80.322-87.402C5155.894,320.757,5122.69,355.913,5119.761,408.159z"/>
	<path fill="#212121" d="M5408.334,232.134v62.988h52.002v27.1h-52.002v169.922c0,27.344,10.742,39.062,35.156,39.062
		c3.418,0,16.113-0.732,18.066-0.977v27.588c-3.418,0.977-17.578,1.709-24.414,1.709c-43.456,0-61.034-18.799-61.034-66.162V322.222
		h-37.598v-27.1h37.598v-62.988H5408.334z"/>
	<path fill="#212121" d="M5504.525,221.392c0-12.207,10.01-21.973,21.973-21.973s21.729,9.766,21.729,21.973
		c0,11.719-9.766,21.729-21.729,21.729S5504.525,233.11,5504.525,221.392z M5510.385,295.122h32.227v262.939h-32.227V295.122z"/>
	<path fill="#212121" d="M5603.158,295.122h30.273v49.072h0.977c14.648-32.715,44.189-52.002,86.67-52.002
		c57.861,0,93.262,37.109,93.262,96.68v169.189h-32.227V393.999c0-46.387-25.391-72.998-70.068-72.998
		c-46.875,0-76.66,33.447-76.66,82.52v154.541h-32.227V295.122z"/>
	<path fill="#212121" d="M5870.736,582.231h33.691c6.348,23.438,34.912,39.062,74.219,39.062c48.828,0,81.299-25.146,81.299-65.674
		v-53.467h-0.732c-14.648,33.936-48.34,57.129-90.332,57.129c-66.162,0-111.084-53.711-111.084-133.301
		c0-80.322,44.922-133.789,111.816-133.789c41.992,0,75.928,22.949,91.309,57.373h0.488v-54.443h30.762v258.057
		c0,60.303-45.166,96.436-115.479,96.436C5918.588,649.614,5877.328,622.515,5870.736,582.231z M6059.945,425.981
		c0-62.256-34.668-104.98-85.449-104.98c-50.293,0-83.74,41.992-83.74,104.98c0,62.744,33.447,104.248,83.74,104.248
		C6025.277,530.229,6059.945,487.749,6059.945,425.981z"/>
	<path fill="#212121" d="M263.926,805.767c105.469,0,166.992,64.697,166.992,176.025c0,111.572-61.279,176.27-166.992,176.27
		H147.959V805.767H263.926z M181.406,1127.788h80.566c86.67,0,135.01-52.246,135.01-145.752c0-93.75-48.34-145.996-135.01-145.996
		h-80.566V1127.788z"/>
	<path fill="#212121" d="M696.543,1083.599c-7.812,44.922-51.025,77.393-108.154,77.393c-72.754,0-119.141-51.025-119.141-133.789
		c0-81.543,46.387-135.01,117.188-135.01c69.092,0,113.525,50.049,113.525,128.174v14.16H502.695v1.709
		c0,59.57,34.18,96.191,86.426,96.191c39.551,0,67.627-20.02,75.439-48.828H696.543z M502.695,1008.159H666.27
		c-0.488-52.246-32.715-87.402-80.322-87.402C538.828,920.757,505.625,955.913,502.695,1008.159z"/>
	<path fill="#212121" d="M833.994,892.192c53.223,0,91.797,31.738,94.482,76.904h-31.006c-3.174-29.785-27.344-49.561-64.453-49.561
		c-35.156,0-61.523,18.066-61.523,44.678c0,21.484,15.625,33.936,49.072,42.236l40.283,9.766
		c52.734,13.184,72.754,32.227,72.754,69.58c0,44.434-42.236,75.195-101.318,75.195c-56.396,0-96.924-32.227-100.586-76.904h32.715
		c3.906,30.029,30.029,49.805,69.824,49.805c39.307,0,66.65-18.066,66.65-45.898c0-22.217-13.428-34.424-49.072-43.213
		l-44.434-11.23c-45.41-11.475-67.871-32.959-67.871-67.627C739.512,922.466,779.795,892.192,833.994,892.192z"/>
	<path fill="#212121" d="M975.352,821.392c0-12.207,10.01-21.973,21.973-21.973s21.729,9.766,21.729,21.973
		c0,11.719-9.766,21.729-21.729,21.729S975.352,833.11,975.352,821.392z M981.211,895.122h32.227v262.939h-32.227V895.122z"/>
	<path fill="#212121" d="M1073.74,1182.231h33.691c6.348,23.438,34.912,39.062,74.219,39.062c48.828,0,81.299-25.146,81.299-65.674
		v-53.467h-0.732c-14.648,33.936-48.34,57.129-90.332,57.129c-66.162,0-111.084-53.711-111.084-133.301
		c0-80.322,44.922-133.789,111.816-133.789c41.992,0,75.928,22.949,91.309,57.373h0.488v-54.443h30.762v258.057
		c0,60.303-45.166,96.436-115.479,96.436C1121.592,1249.614,1080.332,1222.515,1073.74,1182.231z M1262.949,1025.981
		c0-62.256-34.668-104.98-85.449-104.98c-50.293,0-83.74,41.992-83.74,104.98c0,62.744,33.447,104.248,83.74,104.248
		C1228.281,1130.229,1262.949,1087.749,1262.949,1025.981z"/>
	<path fill="#212121" d="M1353.281,895.122h30.273v49.072h0.977c14.648-32.715,44.189-52.002,86.67-52.002
		c57.861,0,93.262,37.109,93.262,96.68v169.189h-32.227V993.999c0-46.387-25.391-72.998-70.068-72.998
		c-46.875,0-76.66,33.447-76.66,82.52v154.541h-32.227V895.122z"/>
	<path fill="#212121" d="M1616.953,1217.144l20.996-105.957h34.424l-30.029,105.957H1616.953z"/>
	<path fill="#212121" d="M1971.445,805.767c105.469,0,166.992,64.697,166.992,176.025c0,111.572-61.279,176.27-166.992,176.27
		h-115.967V805.767H1971.445z M1888.926,1127.788h80.566c86.67,0,135.01-52.246,135.01-145.752
		c0-93.75-48.34-145.996-135.01-145.996h-80.566V1127.788z"/>
	<path fill="#212121" d="M2404.062,1083.599c-7.812,44.922-51.025,77.393-108.154,77.393c-72.754,0-119.141-51.025-119.141-133.789
		c0-81.543,46.387-135.01,117.188-135.01c69.092,0,113.525,50.049,113.525,128.174v14.16h-197.266v1.709
		c0,59.57,34.18,96.191,86.426,96.191c39.551,0,67.627-20.02,75.439-48.828H2404.062z M2210.215,1008.159h163.574
		c-0.488-52.246-32.715-87.402-80.322-87.402C2246.348,920.757,2213.145,955.913,2210.215,1008.159z"/>
	<path fill="#212121" d="M2556.895,1158.062h-34.18l-98.145-262.939h33.936l80.811,228.516h0.732l81.055-228.516h33.691
		L2556.895,1158.062z"/>
	<path fill="#212121" d="M2896.982,1083.599c-7.812,44.922-51.025,77.393-108.154,77.393c-72.754,0-119.141-51.025-119.141-133.789
		c0-81.543,46.387-135.01,117.188-135.01c69.092,0,113.525,50.049,113.525,128.174v14.16h-197.266v1.709
		c0,59.57,34.18,96.191,86.426,96.191c39.551,0,67.627-20.02,75.439-48.828H2896.982z M2703.135,1008.159h163.574
		c-0.488-52.246-32.715-87.402-80.322-87.402C2739.268,920.757,2706.064,955.913,2703.135,1008.159z"/>
	<path fill="#212121" d="M2947.764,790.386h32.227v367.676h-32.227V790.386z"/>
	<path fill="#212121" d="M3027.354,1026.47c0-82.031,47.119-134.277,119.385-134.277s119.628,52.246,119.628,134.277
		s-47.362,134.521-119.628,134.521S3027.354,1108.501,3027.354,1026.47z M3233.407,1026.47c0-65.674-33.202-105.469-86.669-105.469
		c-53.223,0-86.426,40.039-86.426,105.469c0,65.674,33.203,105.469,86.426,105.469
		C3200.205,1131.938,3233.407,1092.144,3233.407,1026.47z"/>
	<path fill="#212121" d="M3545.663,1026.47c0,80.322-45.41,134.521-111.572,134.521c-42.236,0-75.195-22.949-89.844-57.129h-0.732
		v141.357h-32.227V895.122h30.518v54.443h0.732c13.916-33.447,49.316-57.373,91.064-57.373
		C3500.009,892.192,3545.663,946.392,3545.663,1026.47z M3512.704,1026.714c0-63.232-33.936-105.713-84.717-105.713
		c-50.049,0-84.717,43.213-84.717,105.469c0,62.744,34.668,105.469,84.717,105.469
		C3478.769,1131.938,3512.704,1089.946,3512.704,1026.714z"/>
	<path fill="#212121" d="M3922.616,1117.046c-30.029,29.297-72.998,46.631-115.967,46.631c-67.871,0-114.99-40.283-114.99-97.412
		c0-39.307,21.484-70.557,68.115-95.459c5.127-2.441,17.09-9.033,18.555-9.521c-35.4-36.621-47.852-58.838-47.852-84.717
		c0-43.213,37.598-76.172,86.914-76.172c49.561,0,85.938,31.982,85.938,76.172c0,34.912-22.705,62.012-79.59,91.553l96.924,103.76
		c14.648-24.902,22.705-57.617,22.705-97.9v-14.16h31.006v14.404c0,47.607-11.719,88.867-31.982,119.873l61.035,63.965h-41.992
		L3922.616,1117.046z M3724.618,1064.312c0,41.26,34.18,71.045,84.717,71.045c34.424,0,71.777-15.869,93.262-39.551L3796.64,981.548
		c-2.197,0.977-16.113,8.545-17.578,9.521C3740.487,1013.286,3724.618,1035.991,3724.618,1064.312z M3872.079,877.788
		c0-29.297-22.949-50.781-54.688-50.781c-31.25,0-55.176,22.217-55.176,51.27c0,20.508,10.742,38.086,43.213,70.801
		C3853.28,925.396,3872.079,904.155,3872.079,877.788z"/>
	<path fill="#212121" d="M4151.132,1158.062V805.767h33.203v352.295H4151.132z"/>
	<path fill="#212121" d="M4246.347,895.122h30.273v49.072h0.977c11.23-31.006,39.307-52.002,76.66-52.002
		c38.086,0,65.918,21.973,75.928,55.176h0.732c12.451-32.471,43.701-55.176,83.252-55.176c51.27,0,84.961,34.18,84.961,87.402
		v178.467h-32.471V986.919c0-41.016-22.705-65.918-61.279-65.918c-39.307,0-66.65,30.273-66.65,72.754v164.307h-32.227V983.745
		c0-37.598-24.658-62.744-60.791-62.744c-39.062,0-67.139,31.494-67.139,76.66v160.4h-32.227V895.122z"/>
	<path fill="#212121" d="M4890.146,1026.47c0,80.322-45.41,134.521-111.572,134.521c-42.236,0-75.195-22.949-89.844-57.129h-0.732
		v141.357h-32.227V895.122h30.518v54.443h0.732c13.916-33.447,49.316-57.373,91.064-57.373
		C4844.491,892.192,4890.146,946.392,4890.146,1026.47z M4857.187,1026.714c0-63.232-33.936-105.713-84.717-105.713
		c-50.049,0-84.717,43.213-84.717,105.469c0,62.744,34.668,105.469,84.717,105.469
		C4823.251,1131.938,4857.187,1089.946,4857.187,1026.714z"/>
	<path fill="#212121" d="M4937.509,790.386h32.227v367.676h-32.227V790.386z"/>
	<path fill="#212121" d="M5244.394,1083.599c-7.812,44.922-51.025,77.393-108.154,77.393c-72.754,0-119.141-51.025-119.141-133.789
		c0-81.543,46.387-135.01,117.188-135.01c69.092,0,113.525,50.049,113.525,128.174v14.16h-197.266v1.709
		c0,59.57,34.18,96.191,86.426,96.191c39.551,0,67.627-20.02,75.439-48.828H5244.394z M5050.546,1008.159h163.574
		c-0.488-52.246-32.715-87.402-80.322-87.402C5086.679,920.757,5053.476,955.913,5050.546,1008.159z"/>
	<path fill="#212121" d="M5292.733,895.122h30.273v49.072h0.977c11.23-31.006,39.307-52.002,76.66-52.002
		c38.087,0,65.919,21.973,75.929,55.176h0.732c12.451-32.471,43.701-55.176,83.252-55.176c51.27,0,84.961,34.18,84.961,87.402
		v178.467h-32.471V986.919c0-41.016-22.705-65.918-61.279-65.918c-39.307,0-66.65,30.273-66.65,72.754v164.307h-32.227V983.745
		c0-37.598-24.658-62.744-60.792-62.744c-39.062,0-67.139,31.494-67.139,76.66v160.4h-32.227V895.122z"/>
	<path fill="#212121" d="M5916.27,1083.599c-7.812,44.922-51.025,77.393-108.154,77.393c-72.754,0-119.141-51.025-119.141-133.789
		c0-81.543,46.387-135.01,117.188-135.01c69.092,0,113.525,50.049,113.525,128.174v14.16h-197.266v1.709
		c0,59.57,34.18,96.191,86.426,96.191c39.551,0,67.627-20.02,75.439-48.828H5916.27z M5722.422,1008.159h163.574
		c-0.488-52.246-32.715-87.402-80.322-87.402C5758.555,920.757,5725.352,955.913,5722.422,1008.159z"/>
	<path fill="#212121" d="M5964.609,895.122h30.273v49.072h0.977c14.648-32.715,44.189-52.002,86.67-52.002
		c57.861,0,93.262,37.109,93.262,96.68v169.189h-32.227V993.999c0-46.387-25.391-72.998-70.068-72.998
		c-46.875,0-76.66,33.447-76.66,82.52v154.541h-32.227V895.122z"/>
	<path fill="#212121" d="M6278.818,832.134v62.988h52.002v27.1h-52.002v169.922c0,27.344,10.742,39.062,35.156,39.062
		c3.418,0,16.113-0.732,18.066-0.977v27.588c-3.418,0.977-17.578,1.709-24.414,1.709c-43.457,0-61.035-18.799-61.035-66.162V922.222
		h-37.598v-27.1h37.598v-62.988H6278.818z"/>
</g>
</svg>
