<?xml version="1.0" standalone="no"?>
<!DOCTYPE svg PUBLIC "-//W3C//DTD SVG 20010904//EN"
 "http://www.w3.org/TR/2001/REC-SVG-20010904/DTD/svg10.dtd">
<svg version="1.0" xmlns="http://www.w3.org/2000/svg"
 width="700.000000pt" height="700.000000pt" viewBox="0 0 700.000000 700.000000"
 preserveAspectRatio="xMidYMid meet">
<metadata>
Created by potrace 1.11, written by Peter Selinger 2001-2013
</metadata>
<g transform="translate(0.000000,700.000000) scale(0.100000,-0.100000)"
fill="#000000" stroke="none">
<path d="M588 6411 c0 -4 -2 -1316 -3 -2917 l-1 -2910 1747 0 c1576 0 1748 1
1751 15 2 9 3 270 3 581 l-1 565 -1167 3 -1167 2 0 2333 0 2333 -580 0 c-319
0 -581 -2 -582 -5z"/>
<path d="M5250 5833 l0 -583 583 0 584 0 -1 583 -1 582 -582 1 -583 0 0 -583z"/>
<path d="M5254 4081 c-2 -2 -4 -790 -4 -1751 l0 -1747 580 0 c319 0 581 3 582
6 0 3 2 790 3 1749 1 1227 -2 1742 -9 1743 -37 3 -1148 3 -1152 0z"/>
</g>
</svg>
